<svg width="160" height="160" viewBox="0 0 160 160" fill="none" xmlns="http://www.w3.org/2000/svg">
<rect width="160" height="160" rx="80" fill="#30848F"/>
<path d="M105.225 59.8401C106.369 59.8401 107.514 59.8401 108.694 59.8401C108.694 63.562 108.694 67.2839 108.694 71.1186C101.893 71.1186 95.0914 71.1186 88.0842 71.1186C88.0842 67.9693 88.0842 64.82 88.0842 61.5752C89.2289 61.5752 90.3737 61.5752 91.5531 61.5752C91.5531 63.7511 91.5531 65.927 91.5531 68.1688C93.6406 68.1688 95.7281 68.1688 97.8788 68.1688C97.8788 66.451 97.8788 64.7332 97.8788 62.9634C99.0235 62.9634 100.168 62.9634 101.348 62.9634C101.348 64.6812 101.348 66.399 101.348 68.1688C102.627 68.1688 103.907 68.1688 105.225 68.1688C105.225 65.4204 105.225 62.6719 105.225 59.8401Z" fill="#FFFCFD"/>
<path d="M110.53 85.1734C111.742 85.1734 112.954 85.1734 114.203 85.1734C114.203 88.8953 114.203 92.6172 114.203 96.4519C112.991 96.4519 111.779 96.4519 110.53 96.4519C110.53 92.73 110.53 89.0081 110.53 85.1734Z" fill="#FFFCFD"/>
<path d="M110.938 59.8401C112.15 59.8401 113.362 59.8401 114.611 59.8401C114.611 63.562 114.611 67.2839 114.611 71.1186C113.399 71.1186 112.187 71.1186 110.938 71.1186C110.938 67.3967 110.938 63.6748 110.938 59.8401Z" fill="#FFFCFD"/>
<path fill-rule="evenodd" clip-rule="evenodd" d="M55.6394 68.1688H61.9651V62.9634H65.4341V68.1688H74.2085V62.0958H77.6775V62.9634C77.8089 62.9588 77.9404 62.9543 78.0758 62.9496C78.6827 62.9314 79.2895 62.9202 79.8966 62.9091C80.1033 62.9019 80.31 62.8946 80.523 62.8871C82.3239 62.8626 83.6586 63.2466 84.9978 64.2864C86.7322 66.6288 86.2477 68.1965 86.2477 71.1186H55.6394V72.8538C54.768 72.8691 53.8966 72.8782 53.025 72.8863L52.2857 72.8995C50.4601 72.9122 48.7817 72.7989 47.1968 71.9753C45.9092 70.7501 45.4089 69.4455 45.4169 67.8299C45.4172 67.7154 45.4175 67.6008 45.4178 67.4827C45.4189 67.1186 45.4214 66.7545 45.424 66.3903C45.4251 66.1427 45.4259 65.8951 45.4268 65.6474C45.4288 65.0419 45.4329 64.4365 45.4368 63.831H48.9057C48.9133 64.132 48.9209 64.4331 48.9288 64.7433C48.9422 65.1405 48.9557 65.5376 48.9694 65.9348C48.974 66.133 48.9787 66.3312 48.9835 66.5354C49.0248 67.9475 49.0248 67.9475 49.7219 69.2099C50.5601 69.784 51.0177 69.7639 52.1707 69.904V59.8401H55.6394V68.1688ZM82.2973 66.1653C81.5924 65.8354 81.5923 65.8354 80.236 65.8521C80.0425 65.8581 79.8547 65.8639 79.667 65.8698C79.0034 65.8806 78.3408 65.8944 77.6775 65.9131V68.1688H82.5747C82.5747 66.6072 82.5747 66.6072 82.2973 66.1653Z" fill="#FFFCFD"/>
<path d="M90.2523 58.0941C90.5024 58.0964 90.5024 58.0964 90.7576 58.0988C90.9494 58.1019 90.9494 58.1019 91.145 58.1049C91.145 58.3912 91.145 58.6775 91.145 58.9725C90.741 58.9725 90.3369 58.9725 89.9207 58.9725C89.9207 59.1443 89.9207 59.3161 89.9207 59.4931C90.5267 59.4931 91.1327 59.4931 91.7572 59.4931C91.7572 59.8939 91.7572 60.2947 91.7572 60.7077C90.5451 60.7077 89.333 60.7077 88.0842 60.7077C87.984 59.0889 87.984 59.0889 88.4668 58.5279C89.1195 58.1524 89.471 58.0846 90.2523 58.0941Z" fill="#FFFCFD"/>
<path d="M62.5774 72.1597C63.1895 72.4308 63.1895 72.4308 63.5976 72.8538C63.7252 73.4611 63.7252 73.4611 63.5976 74.0684C63.0457 74.6231 62.7087 74.7465 61.8632 74.8492C61.0176 74.7465 60.6807 74.6231 60.1287 74.0684C59.9997 73.3859 60.0062 73.023 60.4348 72.4308C61.1441 72.0539 61.7753 72.0287 62.5774 72.1597Z" fill="#FFFCFD"/>
<path d="M55.6395 99.2282C56.2644 99.586 56.2644 99.586 56.6598 100.096C56.6731 100.753 56.6268 101.13 56.1369 101.647C55.4163 101.914 54.78 101.949 54.0071 101.831C53.4969 101.56 53.4969 101.56 53.1909 101.137C53.077 100.459 53.0717 100.087 53.4969 99.4993C54.2063 99.1222 54.8386 99.0747 55.6395 99.2282Z" fill="#FFFCFD"/>
<path d="M66.6585 72.1597C67.1686 72.4308 67.1686 72.4308 67.4747 72.8538C67.5885 73.5315 67.5938 73.9037 67.1686 74.4913C66.4478 74.8744 65.8542 74.8781 65.026 74.7624C64.5286 74.5781 64.5286 74.5781 64.2098 74.2419C63.993 73.6563 63.993 73.6563 64.0057 73.0273C64.7461 72.0729 65.4087 72.0079 66.6585 72.1597Z" fill="#FFFCFD"/>
<path d="M102.368 59.3195C102.865 59.5147 102.865 59.5147 103.184 59.8401C103.376 60.3862 103.448 60.7275 103.235 61.2716C102.98 61.5752 102.98 61.5752 102.368 61.9223C100.951 62.037 100.951 62.037 100.225 61.6512C99.8002 61.0636 99.8055 60.6914 99.9193 60.0136C100.518 59.1866 101.322 59.1716 102.368 59.3195Z" fill="#FFFCFD"/>
<path d="M98.491 59.3195C99.0011 59.5907 99.0011 59.5907 99.3072 60.0136C99.422 60.6209 99.422 60.6209 99.3072 61.2282C98.7484 61.7898 98.419 61.9085 97.56 61.9982C96.8585 61.9223 96.8585 61.9223 96.3611 61.7596C95.9085 61.2516 95.9275 60.829 95.9658 60.2041C96.0423 59.8401 96.0423 59.8401 96.3484 59.4822C97.079 59.2492 97.7215 59.2016 98.491 59.3195Z" fill="#FFFCFD"/>
<path d="M51.7625 99.2282C52.2726 99.4993 52.2726 99.4993 52.5787 99.9222C52.6935 100.53 52.6935 100.53 52.5787 101.137C52.0199 101.698 51.6906 101.817 50.8315 101.907C50.13 101.831 50.13 101.831 49.6327 101.668C49.18 101.16 49.1991 100.738 49.2373 100.113C49.3138 99.7487 49.3138 99.7487 49.6199 99.3908C50.3505 99.1579 50.9931 99.1102 51.7625 99.2282Z" fill="#FFFCFD"/>
<path fill-rule="evenodd" clip-rule="evenodd" d="M84.6153 93.5021L92.9815 93.3286C92.5101 92.2407 92.0387 91.1527 91.553 90.0318C91.982 89.3022 92.1495 89.182 92.9432 88.7955C93.117 88.7092 93.291 88.6228 93.4702 88.5339C94.3869 88.1248 95.2154 87.8718 96.2464 87.7761C96.4139 87.7567 96.5815 87.7372 96.7541 87.7171C98.7816 87.5842 100.735 88.3356 102.315 89.4047C102.442 89.5433 102.442 89.5433 102.572 89.6848C102.368 91.0304 101.733 92.2483 101.144 93.5021H104.817V85.1734H108.286V96.4519L101.678 96.4594C100.298 96.4628 98.9176 96.4665 97.5376 96.4712C95.3464 96.4786 93.1551 96.4851 90.9638 96.4858C89.368 96.4863 87.7722 96.49 86.1764 96.4971C85.3315 96.5008 84.4866 96.503 83.6416 96.5015C82.846 96.5002 82.0505 96.503 81.2549 96.5088C80.9633 96.5103 80.6716 96.5101 80.3799 96.5085C78.6405 96.4434 78.6404 96.4434 77.1268 97.0467C76.9718 97.1939 76.8168 97.3413 76.6571 97.493C75.3164 98.1412 73.9572 98.1897 72.4676 97.92C71.5462 97.6823 70.8196 97.3876 70.1274 96.7989V96.4519H58.4962V91.0729C57.3328 91.3165 57.3327 91.3165 56.8638 91.767C56.8136 92.2515 56.7876 92.72 56.7794 93.2053C56.7754 93.3473 56.7714 93.4893 56.7674 93.6357C56.7551 94.09 56.7457 94.5443 56.7363 94.9987C56.7286 95.3064 56.7206 95.6142 56.7125 95.9219C56.6928 96.6769 56.6756 97.432 56.6598 98.1871C55.68 98.2044 54.7004 98.2169 53.7205 98.2252C53.388 98.2286 53.0555 98.2334 52.7231 98.2394C48.7194 98.3104 48.7193 98.3104 46.9871 97.1704C46.8837 97.0621 46.7803 96.9538 46.6738 96.8423C46.5668 96.7359 46.4598 96.6294 46.3495 96.5197C45.4148 95.2295 45.356 94.1155 45.3985 92.6346C45.4013 92.4505 45.404 92.2664 45.4068 92.0767C45.414 91.6264 45.4251 91.1761 45.4368 90.7259H48.9058C48.9695 92.0489 48.9695 92.049 48.9849 92.4595C49.0342 93.2632 49.2022 93.8488 49.722 94.5432C50.5658 94.9679 51.2495 95.0894 52.2209 95.1634C52.403 95.1777 52.5851 95.1919 52.7728 95.2066C52.9107 95.2168 53.0487 95.2269 53.1908 95.2373C53.1865 95.136 53.1823 95.0348 53.1779 94.9304C53.0277 90.8367 53.0277 90.8365 54.3219 89.5438C55.8731 88.2881 57.5808 88.224 59.6185 88.2641L61.9652 88.2967V93.5021H69.1071V92.2875C69.3174 91.155 70.0835 90.5279 71.076 89.8C72.2718 89.0805 73.3987 89.0581 74.8206 89.1642C76.0102 89.3662 77.0939 89.7376 77.8814 90.5524C78.6149 91.5243 79.05 92.3428 78.9018 93.5021H81.1463V85.1734H84.6153V93.5021ZM74.1193 92.114C73.2332 92.114 73.0285 92.1618 72.5761 92.8081C72.4388 93.6285 72.4363 94.1916 72.9841 94.8903C73.6728 95.0421 73.6729 95.0421 74.4126 95.0638C74.8972 94.912 74.8972 94.9119 75.2288 94.5432C75.4542 93.844 75.549 93.2286 75.2288 92.5478C74.8207 92.2875 74.8206 92.2875 74.1193 92.114ZM98.2869 90.8994C97.1876 90.6551 96.3498 90.6158 95.4302 91.2464C95.551 92.0686 95.551 92.0686 96.4504 93.5021H97.8787C98.2145 92.7698 98.613 92.0359 98.695 91.2464C98.5562 91.1285 98.4216 91.0139 98.2869 90.8994Z" fill="#FFFCFD"/>
</svg>
